HIERARCHY
ROOT Hips
{
    OFFSET 0.000000 0.000000 0.000000
    CHANNELS 6 Xposition Yposition Zposition Zrotation Xrotation Yrotation
    JOINT Spine
    {
        OFFSET 0.000001 7.292995 0.000000
        CHANNELS 3 Zrotation Xrotation Yrotation
        JOINT Spine1
        {
            OFFSET -0.000000 20.255388 0.000001
            CHANNELS 3 Zrotation Xrotation Yrotation
            JOINT Neck
            {
                OFFSET 0.000001 20.786594 0.000000
                CHANNELS 3 Zrotation Xrotation Yrotation
                JOINT Head
                {
                    OFFSET 0.000003 12.530788 1.776080
                    CHANNELS 3 Zrotation Xrotation Yrotation
                    End Site
                    {
                        OFFSET 0.000000 17.760757 0.000000
                    }
                }
            }
            JOINT LeftShoulder
            {
                OFFSET 3.550532 15.465697 -0.908801
                CHANNELS 3 Zrotation Xrotation Yrotation
                JOINT LeftArm
                {
                    OFFSET 12.513301 -0.000005 0.000001
                    CHANNELS 3 Zrotation Xrotation Yrotation
                    JOINT LeftForeArm
                    {
                        OFFSET 24.225992 0.000005 0.000000
                        CHANNELS 3 Zrotation Xrotation Yrotation
                        JOINT LeftHand
                        {
                            OFFSET 20.711395 -0.000004 0.000000
                            CHANNELS 3 Zrotation Xrotation Yrotation
                            JOINT LeftHandThumb1
                            {
                                OFFSET 2.121964 -2.411326 3.375861
                                CHANNELS 3 Zrotation Xrotation Yrotation
                                JOINT LeftHandThumb2
                                {
                                    OFFSET 2.803212 -0.000001 -0.000002
                                    CHANNELS 3 Zrotation Xrotation Yrotation
                                    JOINT LeftHandThumb3
                                    {
                                        OFFSET 2.395929 0.000000 0.000000
                                        CHANNELS 3 Zrotation Xrotation Yrotation
                                        End Site
                                        {
                                            OFFSET 2.127676 0.000000 0.000000
                                        }
                                    }
                                }
                            }
                            JOINT LeftHandIndex1
                            {
                                OFFSET 8.680776 0.000004 3.375861
                                CHANNELS 3 Zrotation Xrotation Yrotation
                                JOINT LeftHandIndex2
                                {
                                    OFFSET 4.218180 -0.000002 0.000001
                                    CHANNELS 3 Zrotation Xrotation Yrotation
                                    JOINT LeftHandIndex3
                                    {
                                        OFFSET 2.109090 0.000001 -0.000000
                                        CHANNELS 3 Zrotation Xrotation Yrotation
                                        End Site
                                        {
                                            OFFSET 1.872952 0.000000 0.000000
                                        }
                                    }
                                }
                            }
                            JOINT LeftHandMiddle1
                            {
                                OFFSET 8.680775 0.000001 1.118862
                                CHANNELS 3 Zrotation Xrotation Yrotation
                                JOINT LeftHandMiddle2
                                {
                                    OFFSET 4.640000 0.000002 -0.000000
                                    CHANNELS 3 Zrotation Xrotation Yrotation
                                    JOINT LeftHandMiddle3
                                    {
                                        OFFSET 2.530906 0.000005 0.000000
                                        CHANNELS 3 Zrotation Xrotation Yrotation
                                        End Site
                                        {
                                            OFFSET 2.247544 0.000000 0.000000
                                        }
                                    }
                                }
                            }
                            JOINT LeftHandRing1
                            {
                                OFFSET 8.198514 -0.000004 -1.118859
                                CHANNELS 3 Zrotation Xrotation Yrotation
                                JOINT LeftHandRing2
                                {
                                    OFFSET 4.218182 -0.000003 -0.000001
                                    CHANNELS 3 Zrotation Xrotation Yrotation
                                    JOINT LeftHandRing3
                                    {
                                        OFFSET 2.109086 0.000004 0.000001
                                        CHANNELS 3 Zrotation Xrotation Yrotation
                                        End Site
                                        {
                                            OFFSET 1.872952 0.000000 0.000000
                                        }
                                    }
                                }
                            }
                            JOINT LeftHandPinky1
                            {
                                OFFSET 7.716242 0.000005 -3.375859
                                CHANNELS 3 Zrotation Xrotation Yrotation
                                JOINT LeftHandPinky2
                                {
                                    OFFSET 3.374535 0.000004 0.000002
                                    CHANNELS 3 Zrotation Xrotation Yrotation
                                    JOINT LeftHandPinky3
                                    {
                                        OFFSET 1.687275 0.000002 -0.000001
                                        CHANNELS 3 Zrotation Xrotation Yrotation
                                        End Site
                                        {
                                            OFFSET 1.498360 0.000000 0.000000
                                        }
                                    }
                                }
                            }
                        }
                    }
                }
            }
            JOINT RightShoulder
            {
                OFFSET -3.550531 15.465694 -0.908802
                CHANNELS 3 Zrotation Xrotation Yrotation
                JOINT RightArm
                {
                    OFFSET -12.513298 -0.000004 0.000001
                    CHANNELS 3 Zrotation Xrotation Yrotation
                    JOINT RightForeArm
                    {
                        OFFSET -24.225996 -0.000002 -0.000000
                        CHANNELS 3 Zrotation Xrotation Yrotation
                        JOINT RightHand
                        {
                            OFFSET -20.711401 0.000005 0.000001
                            CHANNELS 3 Zrotation Xrotation Yrotation
                            JOINT RightHandThumb1
                            {
                                OFFSET -2.121970 -2.411334 3.375861
                                CHANNELS 3 Zrotation Xrotation Yrotation
                                JOINT RightHandThumb2
                                {
                                    OFFSET -2.803210 0.000003 -0.000004
                                    CHANNELS 3 Zrotation Xrotation Yrotation
                                    JOINT RightHandThumb3
                                    {
                                        OFFSET -2.395930 -0.000001 0.000002
                                        CHANNELS 3 Zrotation Xrotation Yrotation
                                        End Site
                                        {
                                            OFFSET -2.127676 0.000000 0.000000
                                        }
                                    }
                                }
                            }
                            JOINT RightHandIndex1
                            {
                                OFFSET -8.680779 0.000001 3.375860
                                CHANNELS 3 Zrotation Xrotation Yrotation
                                JOINT RightHandIndex2
                                {
                                    OFFSET -4.218180 0.000000 -0.000000
                                    CHANNELS 3 Zrotation Xrotation Yrotation
                                    JOINT RightHandIndex3
                                    {
                                        OFFSET -2.109090 0.000001 -0.000000
                                        CHANNELS 3 Zrotation Xrotation Yrotation
                                        End Site
                                        {
                                            OFFSET -1.872952 0.000000 0.000000
                                        }
                                    }
                                }
                            }
                            JOINT RightHandMiddle1
                            {
                                OFFSET -8.680780 0.000001 1.118860
                                CHANNELS 3 Zrotation Xrotation Yrotation
                                JOINT RightHandMiddle2
                                {
                                    OFFSET -4.640000 -0.000002 0.000001
                                    CHANNELS 3 Zrotation Xrotation Yrotation
                                    JOINT RightHandMiddle3
                                    {
                                        OFFSET -2.530910 0.000001 -0.000000
                                        CHANNELS 3 Zrotation Xrotation Yrotation
                                        End Site
                                        {
                                            OFFSET -2.247544 0.000000 0.000000
                                        }
                                    }
                                }
                            }
                            JOINT RightHandRing1
                            {
                                OFFSET -8.198519 0.000005 -1.118860
                                CHANNELS 3 Zrotation Xrotation Yrotation
                                JOINT RightHandRing2
                                {
                                    OFFSET -4.218180 -0.000006 0.000000
                                    CHANNELS 3 Zrotation Xrotation Yrotation
                                    JOINT RightHandRing3
                                    {
                                        OFFSET -2.109090 0.000001 -0.000000
                                        CHANNELS 3 Zrotation Xrotation Yrotation
                                        End Site
                                        {
                                            OFFSET -1.872952 0.000000 0.000000
                                        }
                                    }
                                }
                            }
                            JOINT RightHandPinky1
                            {
                                OFFSET -7.716248 -0.000002 -3.375859
                                CHANNELS 3 Zrotation Xrotation Yrotation
                                JOINT RightHandPinky2
                                {
                                    OFFSET -3.374540 0.000000 0.000000
                                    CHANNELS 3 Zrotation Xrotation Yrotation
                                    JOINT RightHandPinky3
                                    {
                                        OFFSET -1.687270 0.000004 0.000001
                                        CHANNELS 3 Zrotation Xrotation Yrotation
                                        End Site
                                        {
                                            OFFSET -1.498360 0.000000 0.000000
                                        }
                                    }
                                }
                            }
                        }
                    }
                }
            }
        }
    }
    JOINT LeftUpLeg
    {
        OFFSET 8.880376 -0.000000 -0.000000
        CHANNELS 3 Zrotation Xrotation Yrotation
        JOINT LeftLeg
        {
            OFFSET -0.000001 -40.387405 -0.000001
            CHANNELS 3 Zrotation Xrotation Yrotation
            JOINT LeftFoot
            {
                OFFSET -0.000001 -36.911297 -0.000001
                CHANNELS 3 Zrotation Xrotation Yrotation
                JOINT LeftToeBase
                {
                    OFFSET -0.000002 -5.772240 13.320604
                    CHANNELS 3 Zrotation Xrotation Yrotation
                    End Site
                    {
                        OFFSET 0.000000 0.000000 3.552151
                    }
                }
            }
        }
    }
    JOINT RightUpLeg
    {
        OFFSET -8.880376 0.000000 0.000000
        CHANNELS 3 Zrotation Xrotation Yrotation
        JOINT RightLeg
        {
            OFFSET -0.000001 -40.387390 0.000000
            CHANNELS 3 Zrotation Xrotation Yrotation
            JOINT RightFoot
            {
                OFFSET 0.000002 -36.911297 -0.000001
                CHANNELS 3 Zrotation Xrotation Yrotation
                JOINT RightToeBase
                {
                    OFFSET 0.000001 -5.772238 13.320600
                    CHANNELS 3 Zrotation Xrotation Yrotation
                    End Site
                    {
                        OFFSET 0.000000 0.000000 3.552151
                    }
                }
            }
        }
    }
}
MOTION
Frames: 5
Frame Time: 0.013889
54.739059    79.972496    89.175972    -4.738557    -1.180679    8.344591    2.788288    -10.790913    14.581281    -6.831368    14.807866    15.596255    -11.803773    -10.174668    -27.180733    8.748949    4.433137    -26.105103    -3.190900    3.465900    -0.838850    -67.662231    11.677103    1.435208    -3.514680    -20.229658    -10.072103    1.245769    19.365862    14.000324    26.814234    37.666992    -42.079193    -16.805410    -2.107445    23.227343    -0.000000    0.000000    -0.000000    3.434025    17.969717    -0.599955    3.266333    -0.000001    -0.000000    3.266332    -0.000001    0.000000    3.258889    8.985692    -0.279218    3.218856    -0.000002    0.000000    3.218860    0.000000    0.000000    3.234869    -8.985899    -1.982900    3.195104    0.000000    0.000002    3.195111    -0.000000    -0.000000    3.334225    -17.971443    -3.947554    3.171365    -0.000002    0.000006    3.171383    0.000002    -0.000004    2.393747    2.721952    14.259927    42.778133    34.725704    45.926945    10.395741    -42.612041    15.161567    -32.538296    1.680377    -16.974510    -35.000969    31.215057    45.739594    14.613091    -1.165423    -23.289961    -0.000000    0.000000    -0.000000    -5.218051    17.930145    -4.119134    -4.963964    0.000005    0.000008    -4.963974    -0.000002    -0.000002    -3.805558    8.980485    -2.269899    -3.758825    -0.000002    0.000004    -3.758834    -0.000000    0.000004    -3.195521    -8.986235    0.838309    -3.156268    0.000002    0.000003    -3.156262    -0.000002    0.000003    -2.684926    -17.981470    1.846474    -2.553692    -0.000002    -0.000003    -2.553695    -0.000000    0.000001    10.397335    -30.896231    -8.284842    -0.000000    75.167564    0.000000    3.184341    0.836868    5.714312    0.000000    -1.030561    0.000001    8.484075    -10.121589    -34.962067    0.000002    31.589441    -0.000008    -2.726269    -18.013523    -6.714731    0.000001    -3.213969    -0.000000    
54.716194    79.689659    89.066940    -4.884835    -0.961087    9.073392    2.783521    -10.882568    14.441315    -6.795009    14.842394    15.451715    -12.081429    -10.512964    -27.424911    8.726579    4.308173    -26.242716    -3.096155    3.735187    -0.915698    -68.646217    13.382566    1.550943    -3.281097    -20.060869    -9.488173    -0.857795    21.079201    15.279085    26.566736    37.859890    -42.232330    -16.666918    -2.048057    23.232359    -0.000000    0.000000    -0.000000    4.675763    17.943895    -0.314926    4.447858    0.000002    -0.000003    4.447862    0.000001    0.000003    4.274843    8.975377    -0.103871    4.222411    -0.000000    -0.000001    4.222410    0.000000    0.000000    4.160723    -8.976668    -1.907072    4.109698    -0.000002    -0.000003    4.109692    -0.000000    -0.000002    4.201929    -17.954678    -3.817381    3.996974    -0.000000    -0.000002    3.996949    0.000002    0.000005    2.543762    2.856303    14.148392    42.519867    35.743305    46.591709    11.100834    -41.887981    16.376261    -31.856194    1.468775    -16.470461    -34.949699    31.232481    45.864822    14.545595    -1.136374    -23.291317    -0.000000    0.000000    -0.000000    -6.022321    17.906975    -3.871683    -5.729579    0.000002    0.000001    -5.729575    -0.000000    0.000001    -4.481609    8.972934    -2.164407    -4.426655    0.000002    0.000004    -4.426657    -0.000003    -0.000007    -3.822112    -8.980309    0.920363    -3.775187    -0.000002    0.000002    -3.775190    -0.000000    0.000003    -3.284137    -17.972300    2.021335    -3.123739    0.000003    -0.000001    -3.123726    -0.000002    0.000005    10.572609    -30.346907    -8.386916    0.000002    76.853508    -0.000003    3.192181    0.837520    5.237848    0.000000    -1.174279    0.000000    8.231153    -10.985913    -35.478504    0.000000    32.838013    -0.000000    -3.013790    -18.606318    -7.099195    0.000001    -3.293191    -0.000009    
54.683029    79.304344    88.931427    -5.087698    -0.605902    9.946994    2.794962    -11.070584    14.265030    -6.764825    14.900503    15.271220    -12.433299    -11.003729    -27.711849    8.654013    4.067769    -26.372492    -2.961742    4.142351    -1.006417    -69.928963    15.613592    1.763464    -3.122398    -19.897219    -9.106165    -3.487281    22.535315    16.969624    26.161913    38.163513    -42.217968    -16.498894    -1.975955    23.238256    -0.000000    0.000000    -0.000000    6.022307    17.906981    0.314346    5.729573    0.000000    0.000002    5.729594    -0.000004    -0.000002    5.478309    8.959571    0.230398    5.411274    0.000000    0.000001    5.411275    -0.000002    0.000001    5.317204    -8.961905    -1.782873    5.252119    0.000003    -0.000003    5.252122    -0.000003    -0.000000    5.353567    -17.926470    -3.574849    5.092959    0.000000    0.000003    5.092973    -0.000000    -0.000003    2.664200    3.014214    14.029273    42.261551    37.030560    47.462872    12.054111    -40.856251    18.078650    -31.495127    1.957342    -15.908025    -35.106396    31.069698    46.075798    14.364771    -1.058545    -23.294783    -0.000000    0.000000    -0.000000    -6.022313    17.906975    -3.871690    -5.729578    -0.000002    -0.000001    -5.729579    0.000003    0.000006    -4.940728    8.967107    -2.092823    -4.880195    -0.000000    0.000003    -4.880195    -0.000001    -0.000007    -4.510809    -8.972588    1.042515    -4.455505    0.000002    -0.000000    -4.455513    0.000002    -0.000003    -4.237508    -17.953915    2.186512    -4.030818    -0.000002    -0.000003    -4.030804    -0.000005    -0.000000    10.835850    -29.453030    -8.448534    0.000003    78.802246    -0.000001    3.092315    0.841375    4.469762    -0.000003    -1.336416    -0.000000    7.850368    -12.154230    -36.228329    -0.000004    34.461899    0.000007    -3.227386    -19.496870    -7.402539    0.000001    -3.473104    -0.000004    
54.657440    79.023476    88.805962    -5.237586    -0.321358    10.562354    2.803839    -11.193027    14.160235    -6.748772    14.965216    15.165385    -12.733183    -11.421047    -28.026060    8.583352    3.812335    -26.547153    -2.847547    4.499158    -1.126819    -70.891891    17.392206    1.965893    -3.045804    -19.411329    -9.095960    -5.534369    23.550945    18.254557    25.913536    38.345005    -42.134022    -16.326883    -1.902122    23.244076    -0.000000    0.000000    -0.000000    6.022316    17.906975    1.109630    5.729583    -0.000001    -0.000002    5.729576    0.000002    -0.000001    5.800513    8.954668    0.577872    5.729585    0.000000    0.000001    5.729568    0.000002    0.000002    5.800511    -8.954673    -1.734005    5.729580    -0.000003    0.000001    5.729569    0.000002    0.000003    6.022310    -17.906973    -3.421889    5.729581    -0.000000    -0.000003    5.729582    -0.000002    0.000001    2.651501    3.165560    14.028965    42.014240    37.974297    47.963673    12.848808    -39.975716    19.546144    -31.085363    2.502429    -15.374991    -35.297958    30.854855    46.399712    14.196985    -0.986306    -23.297773    -0.000000    0.000000    -0.000000    -6.022327    17.906975    -3.871688    -5.729576    -0.000000    0.000006    -5.729580    0.000004    -0.000003    -5.305593    8.962074    -2.035969    -5.240631    0.000002    0.000003    -5.240632    0.000002    0.000000    -5.058125    -8.965526    1.114767    -4.996158    -0.000000    0.000003    -4.996158    -0.000002    -0.000004    -4.995021    -17.935978    2.268292    -4.751678    -0.000002    0.000009    -4.751691    0.000000    -0.000001    11.010694    -28.681934    -8.515692    0.000000    80.019791    -0.000001    2.941683    1.021569    3.595653    0.000000    -1.391858    0.000001    7.507710    -13.087397    -36.799442    -0.000002    35.752113    0.000000    -3.238370    -20.041309    -7.526924    0.000000    -3.563878    0.000001    
54.646255    78.739014    88.691635    -5.376453    -0.052436    11.157523    2.816057    -11.345901    14.037928    -6.749047    14.996880    15.044532    -12.949044    -11.729701    -28.237423    8.500071    3.642806    -26.653633    -2.696738    4.841259    -1.205375    -71.826363    19.040043    2.255080    -3.032593    -18.881731    -9.297276    -7.375692    24.279915    19.193554    25.932520    38.324909    -42.052658    -15.997382    -1.760637    23.254610    -0.000000    0.000000    -0.000000    6.022316    17.906973    1.898476    5.729579    -0.000003    0.000000    5.729581    -0.000001    0.000000    5.800522    8.954669    0.972297    5.729575    -0.000000    -0.000001    5.729572    0.000000    0.000001    5.800512    -8.954673    -1.754843    5.729583    -0.000000    -0.000002    5.729575    0.000003    -0.000003    6.022326    -17.906975    -3.463569    5.729568    -0.000002    0.000004    5.729581    -0.000002    0.000001    2.537489    3.321342    14.036235    41.673050    39.036037    48.478584    13.688816    -38.853733    21.219038    -30.533405    3.185597    -15.082109    -35.040894    31.037647    46.522747    14.238298    -1.004086    -23.297054    -0.000000    0.000000    -0.000000    -6.022314    17.906975    -3.871679    -5.729578    -0.000001    -0.000004    -5.729578    0.000002    -0.000004    -5.659692    8.956844    -1.980818    -5.590466    -0.000001    -0.000005    -5.590458    -0.000000    0.000006    -5.589277    -8.957913    1.190666    -5.520904    0.000002    0.000004    -5.520913    0.000004    -0.000007    -5.730060    -17.915777    2.359316    -5.451341    -0.000000    0.000004    -5.451342    -0.000002    0.000001    11.295577    -27.792753    -8.358032    -0.000003    80.998398    0.000006    2.760708    1.158757    2.501221    0.000002    -1.535642    0.000001    7.138596    -14.012811    -37.302746    0.000000    37.065441    0.000001    -3.308547    -20.597260    -7.766253    0.000001    -3.641562    -0.000007    
